<svg preserveAspectRatio="none" width="100%" height="100%" overflow="visible" style="display: block;" viewBox="0 0 21.8182 21.8182" fill="none" xmlns="http://www.w3.org/2000/svg">
<g id="emoji_add_regular_icon_203615 (1) 1" clip-path="url(#clip0_0_129)">
<path id="Vector" d="M9.61443 3.52171C14.0686 3.52195 17.6799 7.13291 17.6799 11.5871C17.6796 16.0412 14.0685 19.6523 9.61443 19.6526C5.16021 19.6526 1.54924 16.0413 1.549 11.5871C1.549 7.13276 5.16006 3.52171 9.61443 3.52171Z" stroke="var(--stroke-0, black)" stroke-width="1.09091"/>
<g id="Group 13">
<path id="Vector_2" d="M11.9276 8.44483C12.4181 8.44483 12.8157 8.84241 12.8157 9.33286C12.8157 9.8233 12.4181 10.2209 11.9276 10.2209C11.4372 10.2209 11.0396 9.8233 11.0396 9.33286C11.0396 8.84241 11.4372 8.44483 11.9276 8.44483Z" fill="var(--fill-0, black)"/>
<path id="Vector_3" d="M7.30041 8.44474C7.79085 8.44474 8.18844 8.84232 8.18844 9.33277C8.18844 9.82321 7.79085 10.2208 7.30041 10.2208C6.80997 10.2208 6.41238 9.82321 6.41238 9.33277C6.41238 8.84232 6.80997 8.44474 7.30041 8.44474Z" fill="var(--fill-0, black)"/>
<path id="Ellipse 6" d="M12.4634 12.655C12.2081 14.3243 11.1407 15.1386 9.50897 15.1386C7.96609 15.0313 6.82703 14.3047 6.55451 12.655" stroke="var(--stroke-0, black)" stroke-width="1.09091" stroke-linecap="round"/>
</g>
<g id="Group 12">
<g id="Union">
<mask id="path-5-outside-1_0_129" maskUnits="userSpaceOnUse" x="11.6365" y="0.727584" width="10" height="10" fill="black">
<rect fill="white" x="11.6365" y="0.727584" width="10" height="10"/>
<path d="M16.9089 2.72758C17.2102 2.72758 17.4548 2.97224 17.4548 3.27348V5.27348H19.4548C19.756 5.27353 19.9997 5.51721 19.9997 5.8184C19.9997 6.11962 19.756 6.36425 19.4548 6.3643H17.4548V8.54594C17.4547 8.84713 17.2101 9.09087 16.9089 9.09087C16.6079 9.09067 16.3641 8.84701 16.364 8.54594V6.3643H14.1824C13.8811 6.3643 13.6365 6.11965 13.6365 5.8184C13.6365 5.51718 13.8811 5.27348 14.1824 5.27348H16.364V3.27348C16.364 2.97235 16.6078 2.72777 16.9089 2.72758Z"/>
</mask>
<path d="M16.9089 2.72758C17.2102 2.72758 17.4548 2.97224 17.4548 3.27348V5.27348H19.4548C19.756 5.27353 19.9997 5.51721 19.9997 5.8184C19.9997 6.11962 19.756 6.36425 19.4548 6.3643H17.4548V8.54594C17.4547 8.84713 17.2101 9.09087 16.9089 9.09087C16.6079 9.09067 16.3641 8.84701 16.364 8.54594V6.3643H14.1824C13.8811 6.3643 13.6365 6.11965 13.6365 5.8184C13.6365 5.51718 13.8811 5.27348 14.1824 5.27348H16.364V3.27348C16.364 2.97235 16.6078 2.72777 16.9089 2.72758Z" fill="var(--fill-0, #101010)"/>
<path d="M16.9089 2.72758V1.63667L16.9082 1.63668L16.9089 2.72758ZM17.4548 5.27348H16.3639V6.36439H17.4548V5.27348ZM19.4548 5.27348L19.455 4.18257H19.4548V5.27348ZM19.9997 5.8184H21.0906V5.81832L19.9997 5.8184ZM19.4548 6.3643V7.45521H19.455L19.4548 6.3643ZM17.4548 6.3643V5.27339H16.3639V6.3643H17.4548ZM17.4548 8.54594L18.5457 8.5462V8.54594H17.4548ZM16.9089 9.09087L16.9082 10.1818H16.9089V9.09087ZM16.364 8.54594H15.2731V8.5462L16.364 8.54594ZM16.364 6.3643H17.4549V5.27339H16.364V6.3643ZM14.1824 6.3643V5.27339L14.1824 5.27339L14.1824 6.3643ZM13.6365 5.8184L12.5456 5.81832V5.8184H13.6365ZM14.1824 5.27348V4.18257H14.1824L14.1824 5.27348ZM16.364 5.27348V6.36439H17.4549V5.27348H16.364ZM16.9089 2.72758V3.81849C16.6077 3.81849 16.3639 3.57473 16.3639 3.27348H17.4548H18.5457C18.5457 2.36974 17.8127 1.63667 16.9089 1.63667V2.72758ZM17.4548 3.27348H16.3639V5.27348H17.4548H18.5457V3.27348H17.4548ZM17.4548 5.27348V6.36439H19.4548V5.27348V4.18257H17.4548V5.27348ZM19.4548 5.27348L19.4546 6.36439C19.1536 6.36434 18.9089 6.11981 18.9088 5.81849L19.9997 5.8184L21.0906 5.81832C21.0906 4.91461 20.3584 4.18272 19.455 4.18257L19.4548 5.27348ZM19.9997 5.8184H18.9088C18.9088 5.51949 19.1511 5.27344 19.4546 5.27339L19.4548 6.3643L19.455 7.45521C20.3609 7.45506 21.0906 6.71975 21.0906 5.8184H19.9997ZM19.4548 6.3643V5.27339H17.4548V6.3643V7.45521H19.4548V6.3643ZM17.4548 6.3643H16.3639V8.54594H17.4548H18.5457V6.3643H17.4548ZM17.4548 8.54594L16.3639 8.54568C16.364 8.2423 16.6099 7.99996 16.9089 7.99996V9.09087V10.1818C17.8103 10.1818 18.5455 9.45196 18.5457 8.5462L17.4548 8.54594ZM16.9089 9.09087L16.9096 7.99996C17.2101 8.00015 17.4548 8.24403 17.4549 8.54568L16.364 8.54594L15.2731 8.5462C15.2733 9.44999 16.0057 10.1812 16.9082 10.1818L16.9089 9.09087ZM16.364 8.54594H17.4549V6.3643H16.364H15.2731V8.54594H16.364ZM16.364 6.3643V5.27339H14.1824V6.3643V7.45521H16.364V6.3643ZM14.1824 6.3643L14.1824 5.27339C14.4836 5.27339 14.7274 5.51716 14.7274 5.8184H13.6365H12.5456C12.5456 6.72214 13.2786 7.45521 14.1824 7.45521L14.1824 6.3643ZM13.6365 5.8184L14.7274 5.81849C14.7273 6.12215 14.4812 6.36439 14.1824 6.36439L14.1824 5.27348L14.1824 4.18257C13.2811 4.18257 12.5456 4.91221 12.5456 5.81832L13.6365 5.8184ZM14.1824 5.27348V6.36439H16.364V5.27348V4.18257H14.1824V5.27348ZM16.364 5.27348H17.4549V3.27348H16.364H15.2731V5.27348H16.364ZM16.364 3.27348H17.4549C17.4549 3.57299 17.2123 3.8183 16.9096 3.81849L16.9089 2.72758L16.9082 1.63668C16.0033 1.63725 15.2731 2.37172 15.2731 3.27348H16.364Z" fill="var(--stroke-0, white)" mask="url(#path-5-outside-1_0_129)"/>
</g>
</g>
</g>
<defs>
<clipPath id="clip0_0_129">
<rect width="21.8182" height="21.8182" fill="white"/>
</clipPath>
</defs>
</svg>
